# xmcd CD database file
#
# Track frame offsets:
#	150
#	18575
#	36980
#	58034
#	76427
#	92975
#	108404
#	126008
#	145751
#	166327
#	182989
#	202869
#	221929
#	235287
#	251872
#
# Disc length: 3557 seconds
#
# Revision: 8
# Processed by: cddbd v1.5.2PL0 Copyright (c) Steve Scherf et al.
# Submitted via: CDex 1.79
#
DISCID=dd0de30f
DTITLE=Various Artist - Body and Soul - Love Serenade ( CD 2 )
DYEAR=2004
DGENRE=Lovesong
TTITLE0=Hot Chocolate - It Started With A Kiss
TTITLE1=Gregory Abbot - Shake You Down
TTITLE2=Billy Paul - Me And Mrs. Jones
TTITLE3=Freddie Jackson - Rock Me Tonight (For Old Time's Sake)
TTITLE4=Charles and Eddie - Would I Lie To You
TTITLE5=Ashford and Simpson - Solid
TTITLE6=Shanice - I Love Your Smile
TTITLE7=Natalie Cole - I've Got Love On My Mind
TTITLE8=Norman Connors - You Are My Starship
TTITLE9=The O'Jays - Let Me Make Love To You
TTITLE10=Smokey Robinson - Cruising
TTITLE11=The Floaters - Float On
TTITLE12=Johnny Mathis and Deniece Williams - Too Much, Too Little, Too Late
TTITLE13=Commodores - Three Times A Lady
TTITLE14=Delfonics - Didn't I Blow Your Mind This Time
EXTD=Rev. #3 submitted by cbs3000 on Dec., 18, 2004 YEAR: 2004
EXTT0=
EXTT1=
EXTT2=
EXTT3=
EXTT4=
EXTT5=
EXTT6=
EXTT7=
EXTT8=
EXTT9=
EXTT10=
EXTT11=
EXTT12=
EXTT13=
EXTT14=
PLAYORDER=
